<svg width="135" height="135" viewBox="0 0 135 135" fill="none" xmlns="http://www.w3.org/2000/svg">
  <rect width="135" height="135" rx="12" fill="#FFFFFF"/>
  <rect x="10" y="10" width="35" height="35" rx="4" fill="#1F1F2B"/>
  <rect x="16" y="16" width="23" height="23" rx="2" fill="#FFFFFF"/>
  <rect x="22" y="22" width="11" height="11" rx="2" fill="#1F1F2B"/>
  <rect x="90" y="10" width="35" height="35" rx="4" fill="#1F1F2B"/>
  <rect x="96" y="16" width="23" height="23" rx="2" fill="#FFFFFF"/>
  <rect x="102" y="22" width="11" height="11" rx="2" fill="#1F1F2B"/>
  <rect x="10" y="90" width="35" height="35" rx="4" fill="#1F1F2B"/>
  <rect x="16" y="96" width="23" height="23" rx="2" fill="#FFFFFF"/>
  <rect x="22" y="102" width="11" height="11" rx="2" fill="#1F1F2B"/>
  <rect x="54" y="12" width="7" height="7" fill="#1F1F2B"/>
  <rect x="68" y="12" width="7" height="7" fill="#1F1F2B"/>
  <rect x="54" y="26" width="7" height="7" fill="#1F1F2B"/>
  <rect x="61" y="33" width="7" height="7" fill="#1F1F2B"/>
  <rect x="75" y="26" width="7" height="7" fill="#1F1F2B"/>
  <rect x="47" y="47" width="7" height="7" fill="#1F1F2B"/>
  <rect x="61" y="47" width="7" height="7" fill="#1F1F2B"/>
  <rect x="75" y="47" width="7" height="7" fill="#1F1F2B"/>
  <rect x="89" y="47" width="7" height="7" fill="#1F1F2B"/>
  <rect x="54" y="54" width="7" height="7" fill="#1F1F2B"/>
  <rect x="68" y="54" width="7" height="7" fill="#1F1F2B"/>
  <rect x="82" y="54" width="7" height="7" fill="#1F1F2B"/>
  <rect x="47" y="61" width="7" height="7" fill="#1F1F2B"/>
  <rect x="61" y="61" width="7" height="7" fill="#1F1F2B"/>
  <rect x="75" y="61" width="7" height="7" fill="#1F1F2B"/>
  <rect x="89" y="61" width="7" height="7" fill="#1F1F2B"/>
  <rect x="54" y="68" width="7" height="7" fill="#1F1F2B"/>
  <rect x="68" y="68" width="7" height="7" fill="#1F1F2B"/>
  <rect x="82" y="68" width="7" height="7" fill="#1F1F2B"/>
  <rect x="47" y="75" width="7" height="7" fill="#1F1F2B"/>
  <rect x="61" y="75" width="7" height="7" fill="#1F1F2B"/>
  <rect x="75" y="75" width="7" height="7" fill="#1F1F2B"/>
  <rect x="96" y="82" width="7" height="7" fill="#1F1F2B"/>
  <rect x="54" y="89" width="7" height="7" fill="#1F1F2B"/>
  <rect x="68" y="89" width="7" height="7" fill="#1F1F2B"/>
  <rect x="82" y="89" width="7" height="7" fill="#1F1F2B"/>
  <rect x="96" y="96" width="7" height="7" fill="#1F1F2B"/>
  <rect x="54" y="103" width="7" height="7" fill="#1F1F2B"/>
  <rect x="68" y="103" width="7" height="7" fill="#1F1F2B"/>
  <rect x="82" y="103" width="7" height="7" fill="#1F1F2B"/>
  <rect x="96" y="110" width="7" height="7" fill="#1F1F2B"/>
</svg>
