<svg width="14" height="14" viewBox="0 0 14 14" fill="none" xmlns="http://www.w3.org/2000/svg">
<path d="M11.6667 11.6676C11.8214 11.6676 11.9697 11.729 12.0791 11.8384C12.1885 11.9478 12.25 12.0962 12.25 12.2509C12.25 12.4056 12.1885 12.554 12.0791 12.6634C11.9697 12.7728 11.8214 12.8343 11.6667 12.8343H2.33333C2.17862 12.8343 2.03025 12.7728 1.92085 12.6634C1.81146 12.554 1.75 12.4056 1.75 12.2509C1.75 12.0962 1.81146 11.9478 1.92085 11.8384C2.03025 11.729 2.17862 11.6676 2.33333 11.6676H11.6667ZM7 1.16992C7.15471 1.16992 7.30308 1.23138 7.41248 1.34078C7.52187 1.45017 7.58333 1.59855 7.58333 1.75326V8.79934L10.3775 6.00517C10.4824 5.90036 10.6232 5.83941 10.7714 5.83473C10.9196 5.83005 11.0641 5.88198 11.1753 5.97997C11.2866 6.07795 11.3564 6.21464 11.3705 6.36225C11.3847 6.50985 11.342 6.65729 11.2513 6.77459L11.2023 6.82942L7.41008 10.624C7.30971 10.7245 7.17611 10.785 7.03434 10.794C6.89257 10.803 6.75239 10.76 6.64008 10.673L6.58525 10.6246L2.7965 6.84226C2.69148 6.73748 2.63033 6.59662 2.62549 6.44835C2.62065 6.30008 2.67248 6.15554 2.77044 6.04413C2.86839 5.93272 3.00511 5.86282 3.15278 5.84865C3.30045 5.83448 3.44798 5.8771 3.56533 5.96784L3.62017 6.01626L6.41667 8.80692V1.75326C6.41667 1.59855 6.47812 1.45017 6.58752 1.34078C6.69692 1.23138 6.84529 1.16992 7 1.16992Z" fill="#1F2329"/>
</svg>
